<?xml version="1.0" standalone="no"?><!-- Generator: Gravit.io --><svg xmlns="http://www.w3.org/2000/svg" xmlns:xlink="http://www.w3.org/1999/xlink" style="isolation:isolate" viewBox="0 0 200 200" width="200" height="200"><defs><clipPath id="_clipPath_PeiE90UdWJRUvq9ziFzAEXHrcBf69y9N"><rect width="200" height="200"/></clipPath></defs><g clip-path="url(#_clipPath_PeiE90UdWJRUvq9ziFzAEXHrcBf69y9N)"><rect x="0" y="0" width="200" height="200" transform="matrix(1,0,0,1,0,0)" fill="none"/><path d=" M 100 0 C 125.755 0 149.102 9.783 170.041 29.338 C 190.011 50.278 200 73.83 200 100 C 200 137.468 182.231 166.941 146.695 188.431 C 131.406 196.147 116.598 200.003 102.274 200.003 L 96.076 200.003 C 69.35 200.003 44.422 187.331 21.281 161.985 C 7.092 142.015 0 121.355 0 100 C 0 67.494 14.393 40.221 43.183 18.181 C 61.5 6.062 80.44 0 100 0 Z  M 20.455 97.726 L 20.455 101.444 C 20.455 131.609 34.918 154.89 63.844 171.28 C 74.448 176.792 85.746 179.545 97.729 179.545 L 102.274 179.545 C 133.4 179.545 157.232 163.429 173.762 131.197 C 177.616 121.005 179.548 111.089 179.548 101.444 L 179.548 97.726 C 179.548 72.518 168.112 51.446 145.251 34.503 C 131.75 25.138 116.393 20.455 99.176 20.455 C 65.153 20.455 40.292 38.156 24.59 73.554 C 21.829 82.372 20.455 90.429 20.455 97.726 Z " fill="rgb(88,89,91)"/><path d=" M 66.594 100.742 C 66.594 82.929 81.056 68.467 98.869 68.467 C 116.682 68.467 131.143 82.929 131.143 100.742 C 131.143 118.555 116.682 133.016 98.869 133.016 C 81.056 133.016 66.594 118.555 66.594 100.742 Z " fill="rgb(255,255,255)"/></g></svg>