<?xml version="1.0" standalone="no"?>
<!DOCTYPE svg PUBLIC "-//W3C//DTD SVG 20010904//EN"
 "http://www.w3.org/TR/2001/REC-SVG-20010904/DTD/svg10.dtd">
<svg version="1.0" xmlns="http://www.w3.org/2000/svg"
 width="700.000000pt" height="700.000000pt" viewBox="0 0 700.000000 700.000000"
 preserveAspectRatio="xMidYMid meet">
<metadata>
Created by potrace 1.14, written by Peter Selinger 2001-2017
</metadata>
<g transform="translate(0.000000,700.000000) scale(0.100000,-0.100000)"
fill="#000000" stroke="none">
<path d="M3330 6939 c-1760 -78 -3194 -1513 -3268 -3271 -32 -758 155 -1445
563 -2063 474 -719 1191 -1229 2025 -1444 456 -117 996 -136 1465 -51 897 163
1701 681 2217 1430 311 451 511 968 583 1507 34 254 34 652 0 906 -51 385
-152 713 -330 1072 -277 560 -668 1005 -1188 1349 -505 334 -1113 538 -1677
562 -63 2 -142 6 -175 7 -33 2 -130 0 -215 -4z m371 -720 c350 -27 665 -111
974 -258 767 -365 1330 -1085 1495 -1911 43 -216 54 -324 54 -550 0 -226 -11
-334 -54 -550 -211 -1055 -1064 -1910 -2117 -2119 -220 -44 -326 -55 -553 -55
-226 0 -334 11 -550 54 -797 159 -1494 688 -1874 1422 -342 658 -397 1444
-151 2146 331 948 1166 1644 2155 1797 219 33 410 41 621 24z"/>
<path d="M3307 4594 c-549 -99 -937 -582 -914 -1139 7 -174 38 -292 117 -450
113 -226 269 -382 495 -495 179 -90 278 -113 485 -114 188 -1 266 12 414 71
182 72 338 186 457 333 88 108 180 289 216 425 24 90 27 117 27 275 0 158 -3
185 -27 275 -52 192 -166 387 -305 523 -251 244 -623 358 -965 296z"/>
</g>
</svg>
