<?xml version="1.0" encoding="UTF-8" standalone="no"?><!-- Generator: Gravit.io --><svg xmlns="http://www.w3.org/2000/svg" xmlns:xlink="http://www.w3.org/1999/xlink" style="isolation:isolate" viewBox="0 0 84 84" width="84pt" height="84pt"><defs><clipPath id="_clipPath_kuaYxx4wgnG9TtNckwnCkRlJhf6rZWrF"><rect width="84" height="84"/></clipPath></defs><g clip-path="url(#_clipPath_kuaYxx4wgnG9TtNckwnCkRlJhf6rZWrF)"><clipPath id="_clipPath_Zodgl4BM55YLcLo2LLV0a5UFuK9sNctD"><rect x="-6" y="-6" width="96" height="96" transform="matrix(1,0,0,1,0,0)" fill="rgb(255,255,255)"/></clipPath><g clip-path="url(#_clipPath_Zodgl4BM55YLcLo2LLV0a5UFuK9sNctD)"><g><g><path d=" M 42 6.551 C 51.13 6.551 59.406 10.019 66.829 16.95 C 73.908 24.374 77.449 32.723 77.449 42 C 77.449 55.281 71.15 65.73 58.553 73.348 C 53.133 76.083 47.884 77.45 42.806 77.45 L 40.609 77.45 C 31.135 77.45 22.298 72.958 14.095 63.973 C 9.065 56.894 6.551 49.569 6.551 42 C 6.551 30.477 11.653 20.808 21.859 12.995 C 28.352 8.7 35.066 6.551 42 6.551 Z  M 13.802 41.194 L 13.802 42.512 C 13.802 53.204 18.929 61.458 29.183 67.268 C 32.942 69.221 36.947 70.198 41.195 70.198 L 42.806 70.198 C 53.84 70.198 62.288 64.485 68.148 53.059 C 69.514 49.446 70.199 45.931 70.199 42.512 L 70.199 41.194 C 70.199 32.258 66.145 24.788 58.041 18.782 C 53.255 15.462 47.811 13.802 41.708 13.802 C 29.647 13.802 20.834 20.077 15.268 32.625 C 14.289 35.75 13.802 38.607 13.802 41.194 Z " fill="rgb(88,89,91)"/><circle vector-effect="non-scaling-stroke" cx="41.59900000000001" cy="42.2625" r="11.441000000000003" fill="rgb(241,90,41)"/></g></g></g></g></svg>