<?xml version="1.0" encoding="UTF-8" standalone="no"?><!-- Generator: Gravit.io --><svg xmlns="http://www.w3.org/2000/svg" xmlns:xlink="http://www.w3.org/1999/xlink" style="isolation:isolate" viewBox="0 0 72 72" width="72pt" height="72pt"><defs><clipPath id="_clipPath_6IousWiiUROd45ersuO3npozYNavMl04"><rect width="72" height="72"/></clipPath></defs><g clip-path="url(#_clipPath_6IousWiiUROd45ersuO3npozYNavMl04)"><g><path d=" M 36 0.55 C 45.13 0.55 53.406 4.019 60.829 10.95 C 67.908 18.374 71.449 26.722 71.449 36 C 71.449 49.281 65.15 59.73 52.553 67.348 C 47.133 70.083 41.884 71.45 36.806 71.45 L 34.609 71.45 C 25.135 71.45 16.298 66.958 8.095 57.973 C 3.065 50.894 0.551 43.569 0.551 36 C 0.551 24.477 5.653 14.808 15.859 6.995 C 22.352 2.7 29.066 0.55 36 0.55 Z  M 7.802 35.194 L 7.802 36.512 C 7.802 47.204 12.929 55.457 23.183 61.268 C 26.942 63.221 30.947 64.198 35.195 64.198 L 36.806 64.198 C 47.84 64.198 56.288 58.485 62.148 47.059 C 63.514 43.446 64.199 39.931 64.199 36.512 L 64.199 35.194 C 64.199 26.258 60.145 18.788 52.041 12.782 C 47.255 9.462 41.811 7.802 35.708 7.802 C 23.647 7.802 14.834 14.077 9.268 26.625 C 8.289 29.75 7.802 32.606 7.802 35.194 Z " fill="rgb(88,89,91)"/><circle vector-effect="non-scaling-stroke" cx="35.59900000000001" cy="36.2625" r="11.441000000000003" fill="rgb(241,90,41)"/></g></g></svg>