<?xml version="1.0" encoding="utf-8"?>
<!-- Generator: Adobe Illustrator 17.0.0, SVG Export Plug-In . SVG Version: 6.00 Build 0)  -->
<!DOCTYPE svg PUBLIC "-//W3C//DTD SVG 1.1//EN" "http://www.w3.org/Graphics/SVG/1.1/DTD/svg11.dtd">
<svg version="1.1" id="Layer_1" xmlns="http://www.w3.org/2000/svg" xmlns:xlink="http://www.w3.org/1999/xlink" x="0px" y="0px"
	 width="366.5px" height="132.35px" viewBox="0 0 366.5 132.35" enable-background="new 0 0 366.5 132.35" xml:space="preserve">
<g>
	<path fill="#58595B" d="M38.232,33.176c9.13,0,17.406,3.468,24.829,10.4c7.079,7.423,10.62,15.772,10.62,25.049
		c0,13.282-6.299,23.73-18.896,31.348c-5.42,2.735-10.669,4.102-15.747,4.102h-2.197c-9.474,0-18.311-4.492-26.514-13.477
		c-5.03-7.079-7.544-14.403-7.544-21.973c0-11.523,5.102-21.191,15.308-29.004C24.584,35.325,31.298,33.176,38.232,33.176z
		 M10.034,67.819v1.318c0,10.693,5.127,18.946,15.381,24.756c3.759,1.954,7.764,2.93,12.012,2.93h1.611
		c11.034,0,19.482-5.713,25.342-17.139c1.366-3.613,2.051-7.128,2.051-10.547v-1.318c0-8.936-4.054-16.406-12.158-22.412
		c-4.786-3.32-10.23-4.98-16.333-4.98c-12.061,0-20.874,6.275-26.44,18.823C10.521,62.376,10.034,65.232,10.034,67.819z"/>
	<path fill="#58595B" d="M83.159,2.854h0.366c2.245,0.489,3.369,1.465,3.369,2.93v40.283c9.765-9.423,19.433-14.136,29.004-14.136
		c9.229,0,17.626,3.516,25.195,10.547c7.226,7.569,10.84,16.065,10.84,25.488c0,13.526-6.421,24.17-19.263,31.934
		c-5.519,2.783-10.84,4.175-15.967,4.175h-2.197c-9.668,0-18.702-4.565-27.1-13.696c-5.079-6.786-7.617-14.892-7.617-24.316V5.783
		C79.79,4.318,80.913,3.342,83.159,2.854z M86.895,67.16v1.392c0,12.061,6.299,21.021,18.896,26.88
		c3.417,1.025,6.493,1.538,9.229,1.538h1.685c11.767,0,20.654-6.299,26.66-18.896c0.976-3.856,1.465-6.835,1.465-8.936v-1.685
		c0-12.012-6.421-20.995-19.263-26.953c-3.907-0.976-6.958-1.465-9.155-1.465h-1.099c-11.768,0-20.63,6.178-26.587,18.53
		C87.504,61.13,86.895,64.329,86.895,67.16z"/>
	<path fill="#58595B" d="M192.027,32.81c13.477,0,24.145,6.617,32.006,19.849c2.393,5.273,3.59,10.816,3.59,16.626v31.714
		c0,1.661-1.172,2.686-3.516,3.076h-0.146c-1.514,0-2.637-0.879-3.369-2.637v0.146l0.293-6.812v-4.614
		c-9.768,9.278-19.043,13.916-27.832,13.916h-2.125c-12.061,0-22.119-6.079-30.175-18.237c-2.93-5.81-4.395-11.693-4.395-17.651
		c0-13.231,6.519-23.73,19.556-31.494C181.431,34.104,186.8,32.81,192.027,32.81z M163.389,67.893v0.806
		c0,11.622,5.834,20.387,17.505,26.294c3.76,1.368,7.104,2.051,10.033,2.051h2.125c9.766,0,17.797-4.858,24.096-14.575
		c2.295-4.589,3.443-8.983,3.443-13.184v-1.099c0-11.23-5.52-19.799-16.553-25.708c-3.908-1.758-7.91-2.637-12.012-2.637h-0.293
		c-11.818,0-20.68,6.128-26.587,18.384C163.975,62.033,163.389,65.256,163.389,67.893z"/>
	<path fill="#58595B" d="M239.004,32.81c2.392,0.586,3.589,1.538,3.589,2.856v10.107c9.619-8.643,18.871-12.964,27.759-12.964
		c9.766,0,18.432,4.078,26.001,12.231c5.518,6.837,8.276,13.989,8.276,21.46v34.79c0,1.368-1.172,2.296-3.516,2.783
		c-2.344-0.439-3.516-1.562-3.516-3.369V70.09c0-14.55-6.348-24.17-19.043-28.857c-3.076-0.78-5.812-1.172-8.203-1.172h-0.806
		c-10.646,0-18.849,5.469-24.609,16.406c-1.563,3.418-2.344,8.692-2.344,15.82v28.711c0,1.661-1.172,2.686-3.516,3.076h-0.146
		c-1.758,0-2.882-1.269-3.369-3.809V37.351C235.903,34.324,237.051,32.81,239.004,32.81z"/>
	<path fill="#58595B" d="M359.296,33.615c2.245,0.439,3.369,1.441,3.369,3.003v0.22c-0.099,0.978-8.472,21.29-25.122,60.938
		c-7.813,19.384-12.11,29.564-12.891,30.542c-0.538,0.439-1.221,0.756-2.051,0.952c-2.149-0.439-3.223-1.271-3.223-2.49v-1.245
		c0-0.392,3.833-9.814,11.499-28.271v-0.952l-24.316-59.326v0.366c0.439-2.294,1.538-3.442,3.296-3.442
		c1.952,0,3.833,2.979,5.64,8.936c11.084,26.221,16.894,40.43,17.432,42.627h2.93c13.623-33.252,20.702-50.195,21.24-50.83
		C357.929,33.958,358.662,33.615,359.296,33.615z"/>
</g>
<circle fill="#F15A29" cx="37.831" cy="68.888" r="11.441"/>
</svg>
